<?xml version="1.0" standalone="no"?><!DOCTYPE svg PUBLIC "-//W3C//DTD SVG 1.1//EN" "http://www.w3.org/Graphics/SVG/1.1/DTD/svg11.dtd"><svg t="1585317272052" class="icon" viewBox="0 0 1024 1024" version="1.1" xmlns="http://www.w3.org/2000/svg" p-id="16662" xmlns:xlink="http://www.w3.org/1999/xlink" width="200" height="200"><defs><style type="text/css"></style></defs><path d="M422.612 659.135a24.383 24.383 0 0 0-8.853-27.256l-44.907-32.617c0.151 2.91-0.068 5.859-1.021 8.75l-57.388 176.66c-7.3 22.441 18.408 41.123 37.51 27.246l32.749-23.809 41.91-128.974zM647.891 461.771a24.383 24.383 0 0 0 23.184 16.841H806.7l9.668-7.031c19.102-13.882 9.287-44.087-14.316-44.087H636.758l11.133 34.277zM277.817 478.612h185.737a24.378 24.378 0 0 0 23.184-16.841l57.402-176.65c1.172-3.589 3.105-6.396 5.332-8.838l-13.75-42.28c-7.295-22.461-39.067-22.461-46.367 0l-57.388 176.65c-3.271 10.039-12.622 16.841-23.179 16.841H223.037c-23.599 0-33.418 30.21-14.321 44.087l44.893 32.612c-0.513-12.773 8.828-25.581 24.208-25.581" fill="#4510E6" opacity=".1" p-id="16663"></path><path d="M718.774 864.869c-7.379 0.001-14.483-2.327-20.545-6.733L512.546 723.233 326.847 858.14c-6.048 4.399-13.152 6.729-20.533 6.729-11.183 0-21.809-5.438-28.424-14.547-6.619-9.114-8.4-20.535-4.886-31.335l70.917-218.271-185.691-134.91c-12.308-8.952-17.41-24.677-12.708-39.136a34.91 34.91 0 0 1 33.281-24.17h229.52l70.937-218.297a34.901 34.901 0 0 1 33.283-24.181 34.903 34.903 0 0 1 33.286 24.19L616.758 402.5H846.27a34.917 34.917 0 0 1 33.303 24.2c4.693 14.467-0.43 30.188-12.748 39.121L681.16 600.724l70.937 218.272c3.504 10.821 1.711 22.235-4.909 31.34-6.618 9.099-17.239 14.532-28.414 14.533zM512.546 669.687a34.764 34.764 0 0 1 20.605 6.715L690.28 790.558l-60.043-184.751c-4.681-14.525 0.449-30.233 12.745-39.148L800.095 452.5H605.859a34.915 34.915 0 0 1-33.29-24.199l-60.026-184.733-60.032 184.739a34.912 34.912 0 0 1-33.288 24.193H224.981L382.13 566.674c12.317 8.967 17.414 24.695 12.704 39.152L334.816 790.55 491.97 676.38c5.999-4.371 13.124-6.693 20.576-6.693z" fill="#4510E6" p-id="16664"></path><path d="M339.409 363.08h-54.478c-13.807 0-25-11.193-25-25s11.193-25 25-25h54.04l0.017-0.048 23.521-67.671c4.533-13.042 18.783-19.938 31.822-15.407 13.042 4.533 19.94 18.78 15.407 31.822l-23.454 67.479a49.278 49.278 0 0 1-46.875 33.825z" fill="#50E3C2" p-id="16665"></path></svg>