<?xml version="1.0" standalone="no"?><!DOCTYPE svg PUBLIC "-//W3C//DTD SVG 1.1//EN" "http://www.w3.org/Graphics/SVG/1.1/DTD/svg11.dtd"><svg t="1585318161293" class="icon" viewBox="0 0 1024 1024" version="1.1" xmlns="http://www.w3.org/2000/svg" p-id="1536" xmlns:xlink="http://www.w3.org/1999/xlink" width="200" height="200"><defs><style type="text/css"></style></defs><path d="M155.665067 575.317333L563.063467 167.918933c7.168-7.168 23.995733-12.049067 33.860266-9.8304l190.532267 42.581334c8.738133 1.9456 19.387733 12.5952 21.282133 21.213866l41.847467 189.781334c2.1504 9.796267-2.816 26.6752-9.949867 33.809066L433.237333 852.872533 155.648 575.317333z m259.464533 331.861334a25.6 25.6 0 0 0 36.1984 0l425.506133-425.489067c19.456-19.473067 29.661867-54.152533 23.739734-81.032533l-41.8304-189.781334c-6.1952-28.091733-32-53.896533-60.125867-60.177066L608.085333 108.117333c-26.965333-6.024533-61.678933 4.0448-81.237333 23.6032L101.376 557.2096a25.6 25.6 0 0 0 0 36.1984l313.7536 313.770667z" fill="#108EE9" p-id="1537"></path><path d="M699.733333 384a76.8 76.8 0 1 0 0-153.6 76.8 76.8 0 0 0 0 153.6z m0-51.2a25.6 25.6 0 1 1 0-51.2 25.6 25.6 0 0 1 0 51.2z" fill="#108EE9" p-id="1538"></path></svg>