<?xml version="1.0" standalone="no"?><!DOCTYPE svg PUBLIC "-//W3C//DTD SVG 1.1//EN" "http://www.w3.org/Graphics/SVG/1.1/DTD/svg11.dtd"><svg t="1585318179548" class="icon" viewBox="0 0 1024 1024" version="1.1" xmlns="http://www.w3.org/2000/svg" p-id="2040" xmlns:xlink="http://www.w3.org/1999/xlink" width="200" height="200"><defs><style type="text/css"></style></defs><path d="M830.737067 887.466667l-28.450134-526.370134c-0.068267-1.0752-1.774933-2.696533-2.952533-2.696533H219.2896c-1.194667 0-2.901333 1.604267-2.952533 2.696533L187.904 887.466667h642.850133zM165.205333 358.3488C166.741333 330.103467 190.890667 307.2 219.2896 307.2h580.0448c28.330667 0 52.548267 22.852267 54.0672 51.1488l28.6208 529.169067C883.541333 915.7632 861.866667 938.666667 833.450667 938.666667H185.173333c-28.330667 0-50.0736-22.852267-48.554666-51.1488l28.6208-529.169067zM691.2 238.933333c0-98.9696-80.2304-179.2-179.2-179.2S332.8 139.963733 332.8 238.933333a25.6 25.6 0 0 0 51.2 0 128 128 0 0 1 256 0 25.6 25.6 0 0 0 51.2 0z" fill="#f4ea2a" p-id="2041"></path><path d="M441.053867 651.537067l-61.781334-60.2112 85.367467-12.407467 38.178133-77.346133 38.161067 77.346133 85.367467 12.407467-61.781334 60.2112 14.592 85.009066-76.3392-40.1408-76.356266 40.1408 14.592-85.009066z m120.610133-121.344l19.285333 13.994666-5.973333-12.066133-13.312-1.928533z m-46.933333 217.8048h-23.825067l11.912533 6.263466 11.912534-6.263466z m56.354133 42.154666c35.413333 18.602667 68.317867-5.256533 61.5424-44.714666l-13.038933-76.032 55.2448-53.845334c28.637867-27.921067 16.110933-66.577067-23.5008-72.3456l-76.3392-11.093333-34.133334-69.1712c-17.7152-35.874133-58.368-35.8912-76.0832 0l-34.133333 69.1712-76.3392 11.093333c-39.594667 5.751467-52.1728 44.407467-23.517867 72.362667l55.2448 53.828267-13.038933 76.032c-6.7584 39.424 26.112 63.351467 61.5424 44.714666l68.266667-35.8912 68.283733 35.8912z" fill="#f4ea2a" p-id="2042"></path></svg>